<svg width="160" height="160" viewBox="0 0 160 160" fill="none" xmlns="http://www.w3.org/2000/svg">
<path fill-rule="evenodd" clip-rule="evenodd" d="M13.6041 0.208693C11.1943 0.645621 8.71403 1.71115 6.85647 3.10739C5.67796 3.99317 3.47391 6.25527 2.71657 7.35641C1.85871 8.60331 0.77712 11.0334 0.371971 12.6241L0 14.0848V80.0163V145.948L0.371971 147.408C0.77712 148.999 1.85871 151.429 2.71657 152.676C3.51068 153.831 5.69185 156.048 6.95338 156.983C8.39044 158.048 10.7695 159.164 12.5941 159.628L14.0552 160H80H145.945L147.406 159.628C149.147 159.185 151.558 158.075 152.948 157.078C154.112 156.243 156.013 154.352 156.992 153.056C157.953 151.783 159.187 149.142 159.626 147.417L160 145.948V80.0163V14.0848L159.626 12.6154C159.183 10.8775 157.953 8.23713 156.999 6.977C156.076 5.75804 154.326 4.00053 153.136 3.09709C151.853 2.12275 149.24 0.876994 147.497 0.408693L146.108 0.0354901L80.4903 0.00705869C24.7041 -0.0169609 14.6822 0.0132678 13.6041 0.208693ZM87.0276 26.6579C88.9324 27.0071 92.0937 28.0154 93.6966 28.7852C97.2439 30.4888 100.011 32.9971 102.506 36.771C104.373 39.5947 105.663 42.7706 106.544 46.7136C107.535 51.1453 107.506 50.5966 107.617 66.6993C107.706 79.7357 107.752 81.6797 107.984 82.4697C108.734 85.0174 109.614 86.6428 111.851 89.6163C113.779 92.1779 114.571 93.4277 114.912 94.4465C115.28 95.5473 115.261 96.6875 114.862 97.3707C114.155 98.5821 110.619 101.225 104.204 105.336C99.4362 108.392 98.4691 108.938 97.8273 108.938C96.2512 108.938 93.7004 106.228 90.2374 100.875L89.3024 99.429L88.8356 99.8125C88.5789 100.023 87.6988 100.764 86.8798 101.458C81.3982 106.105 76.3203 107.839 68.1512 107.854C64.397 107.86 62.6419 107.618 59.9186 106.717C56.7292 105.661 54.1926 104.062 51.8792 101.649C50.2246 99.9228 49.2882 98.5629 48.2208 96.3354C46.4709 92.6841 45.9308 89.9512 45.9316 84.7548C45.9321 81.5921 45.9837 80.8213 46.3011 79.2393C48.3296 69.1284 55.1694 62.062 65.6206 59.28C68.3185 58.5618 76.8145 56.8855 79.9451 56.4538C81.9697 56.1746 82.6347 56.0251 82.6912 55.8367C82.8844 55.1926 83.0719 50.8778 82.9552 49.7602C82.7921 48.1979 82.41 47.4453 81.3328 46.5646C80.2375 45.6692 79.057 45.321 77.1399 45.3278C74.5768 45.3372 72.6858 46.0359 71.198 47.5233C70.1818 48.5393 69.6657 49.5136 69.1334 51.4215C68.4511 53.8666 67.623 54.9873 66.0566 55.5854C65.3302 55.8628 65.1935 55.854 58.4883 55.1006C51.0143 54.2607 50.4353 54.1328 49.3377 53.0782C47.8134 51.6138 47.6684 50.0953 48.6755 46.143C49.7497 41.9277 51.24 38.129 52.8036 35.6208C54.8651 32.3139 58.6718 29.5149 62.9416 28.1664C65.3596 27.4027 69.742 26.7009 73.8045 26.427C77.3063 26.1909 85.2352 26.3293 87.0276 26.6579ZM79.908 71.4475C72.6423 72.6685 68.0338 77.3586 68.4418 83.1161C68.673 86.3808 70.3296 88.953 72.7273 89.7709C73.8935 90.1687 75.7567 90.1305 76.8948 89.6854C79.3164 88.7385 81.8105 85.6244 82.635 82.5186C83.0823 80.8331 83.2329 76.345 82.9431 73.3303L82.7377 71.1927L81.9816 71.2094C81.5658 71.2185 80.6328 71.3256 79.908 71.4475ZM133.593 99.5483C136.786 100.066 138.724 100.74 139.841 101.721C141.229 102.939 141.701 105.722 141.238 109.948C140.617 115.617 138.569 121.438 135.927 125.041C134.892 126.453 132.127 129.145 131.059 129.781C130.263 130.255 129.123 130.439 128.491 130.195C127.747 129.908 127.493 129.082 127.518 127.026C127.529 126.055 127.624 124.849 127.729 124.346C127.833 123.843 128.729 121.365 129.718 118.84C132.6 111.485 133.25 109.235 132.805 108.16C132.386 107.15 131.979 106.943 130.067 106.767C127.95 106.572 125.355 106.779 122.165 107.397C119.559 107.902 116.299 108.096 115.401 107.8C114.195 107.402 113.74 106.312 114.248 105.041C115.098 102.917 120.348 100.343 125.271 99.6375C125.945 99.5408 126.68 99.4347 126.905 99.4017C128.062 99.232 132.201 99.3227 133.593 99.5483ZM22.4719 104.26C23.1461 104.561 25.0215 105.413 26.6394 106.154C45.8409 114.95 64.6604 119.091 82.3547 118.413C95.824 117.897 108.632 115.177 122.038 109.986C125.775 108.539 126.422 108.404 127.745 108.801C128.591 109.054 129.658 109.992 130.029 110.808C130.733 112.357 130.174 114.296 128.683 115.474C125.052 118.344 117.359 122.865 111.762 125.419C95.4731 132.852 80.295 134.991 63.5751 132.21C48.5258 129.707 33.8971 122.421 20.429 110.72C17.7695 108.41 17.5689 108.123 17.5689 106.631C17.5689 105.712 17.8187 105.135 18.4941 104.495C19.5074 103.534 20.688 103.464 22.4719 104.26Z" fill="black"/>
</svg>
