<svg width="197" height="41" viewBox="0 0 197 41" fill="none" xmlns="http://www.w3.org/2000/svg">
<path d="M69.08 15.856C67.512 12.24 64.152 11.024 61.208 11.024C56.728 11.024 52.248 13.584 52.248 18.704V26.48C52.248 31.696 56.728 34.32 61.208 34.32C65.752 34.32 70.104 31.696 70.104 26.48V20.848H60.984V25.648H64.6V26.48C64.6 30 57.976 30.032 57.976 26.48V18.704C57.976 15.728 63.032 15.024 64.28 18.064L69.08 15.856ZM83.4593 11.344H78.2433L70.3392 34H76.4833L77.8913 29.456H83.9393L85.4113 34H91.5553L83.4593 11.344ZM79.1713 24.368L80.8353 17.744H80.9953L82.5633 24.368H79.1713ZM93.0733 34H98.8013V27.472L98.4173 22.896L98.5773 22.864L101.617 30.64H105.553L108.529 22.864L108.721 22.896L108.369 27.472L108.337 34H114.097V11.344H108.369L103.569 22.416L98.8013 11.344H93.0733V34ZM123.459 16.72H133.443V11.344H117.667V34H133.443V28.592H123.459V25.2H132.643V20.24H123.459V16.72Z" fill="#34344A"/>
<path d="M152.928 18.256C153.056 13.936 149.888 11.344 145.568 11.344H136.48V34H145.728C150.752 34 153.216 31.792 153.792 28.144C154.08 26.416 153.696 23.504 150.592 21.936C152.224 21.104 152.896 19.28 152.928 18.256ZM142.24 20.208V16.176H145.568C148.448 16.176 148.352 20.208 145.568 20.208H142.24ZM142.24 28.976V24.336H145.568C148.96 24.336 149.024 28.976 145.568 28.976H142.24ZM155.904 26.544C155.904 31.728 160.608 34.32 165.312 34.32C170.016 34.32 174.688 31.728 174.688 26.544V18.8C174.688 13.616 169.984 11.024 165.28 11.024C160.576 11.024 155.904 13.584 155.904 18.8V26.544ZM161.632 18.8C161.632 17.136 163.424 16.24 165.216 16.24C167.072 16.24 168.96 17.04 168.96 18.8V26.544C168.96 28.176 167.136 29.008 165.312 29.008C163.488 29.008 161.632 28.208 161.632 26.544V18.8ZM185.527 19.088L181.655 11.344H174.966L181.335 22.704L174.966 34H181.655L185.527 26.288L189.495 34H196.151L189.815 22.704L196.151 11.344H189.495L185.527 19.088Z" fill="#D81E5B"/>
<path d="M20.4772 35.5605L3.68999 23.2413L0 25.9502L20.5 41L40.9999 25.9502L37.2871 23.2198L20.4771 35.5606L20.4772 35.5605ZM20.5 30.0995L41 15.0498L20.5 0L8.0078e-05 15.0498L3.71282 17.7802L20.5 30.0995V30.0995ZM20.5 5.43946L33.5745 15.0499L20.5 24.6602L7.42563 15.0499L20.5 5.43946V5.43946Z" fill="#D81E5B"/>
</svg>
