<svg width="197" height="41" viewBox="0 0 197 41" fill="none" xmlns="http://www.w3.org/2000/svg">
<path d="M69.08 12.856C67.512 9.24 64.152 8.024 61.208 8.024C56.728 8.024 52.248 10.584 52.248 15.704V23.48C52.248 28.696 56.728 31.32 61.208 31.32C65.752 31.32 70.104 28.696 70.104 23.48V17.848H60.984V22.648H64.6V23.48C64.6 27 57.976 27.032 57.976 23.48V15.704C57.976 12.728 63.032 12.024 64.28 15.064L69.08 12.856ZM83.4593 8.344H78.2433L70.3392 31H76.4833L77.8913 26.456H83.9393L85.4113 31H91.5553L83.4593 8.344ZM79.1713 21.368L80.8353 14.744H80.9953L82.5633 21.368H79.1713ZM93.0733 31H98.8013V24.472L98.4173 19.896L98.5773 19.864L101.617 27.64H105.553L108.529 19.864L108.721 19.896L108.369 24.472L108.337 31H114.097V8.344H108.369L103.569 19.416L98.8013 8.344H93.0733V31ZM123.459 13.72H133.443V8.344H117.667V31H133.443V25.592H123.459V22.2H132.643V17.24H123.459V13.72Z" fill="white"/>
<path d="M152.928 15.256C153.056 10.936 149.888 8.344 145.568 8.344H136.48V31H145.728C150.752 31 153.216 28.792 153.792 25.144C154.08 23.416 153.696 20.504 150.592 18.936C152.224 18.104 152.896 16.28 152.928 15.256ZM142.24 17.208V13.176H145.568C148.448 13.176 148.352 17.208 145.568 17.208H142.24ZM142.24 25.976V21.336H145.568C148.96 21.336 149.024 25.976 145.568 25.976H142.24ZM155.904 23.544C155.904 28.728 160.608 31.32 165.312 31.32C170.016 31.32 174.688 28.728 174.688 23.544V15.8C174.688 10.616 169.984 8.024 165.28 8.024C160.576 8.024 155.904 10.584 155.904 15.8V23.544ZM161.632 15.8C161.632 14.136 163.424 13.24 165.216 13.24C167.072 13.24 168.96 14.04 168.96 15.8V23.544C168.96 25.176 167.136 26.008 165.312 26.008C163.488 26.008 161.632 25.208 161.632 23.544V15.8ZM185.527 16.088L181.655 8.344H174.966L181.335 19.704L174.966 31H181.655L185.527 23.288L189.495 31H196.151L189.815 19.704L196.151 8.344H189.495L185.527 16.088Z" fill="#D81E5B"/>
<path d="M20.4772 35.5605L3.68999 23.2413L0 25.9502L20.5 41L40.9999 25.9502L37.2871 23.2198L20.4771 35.5606L20.4772 35.5605ZM20.5 30.0995L41 15.0498L20.5 0L8.0078e-05 15.0498L3.71282 17.7802L20.5 30.0995V30.0995ZM20.5 5.43946L33.5745 15.0499L20.5 24.6602L7.42563 15.0499L20.5 5.43946Z" fill="#D81E5B"/>
</svg>
