<svg width="382" height="428" viewBox="0 0 382 428" fill="none" xmlns="http://www.w3.org/2000/svg">
<path d="M153.268 1.00002C151.804 0.998872 150.339 1.04251 148.875 1.13088C104.533 3.80777 69.2881 46.1072 70.1523 95.6094C70.23 100.028 70.6039 104.423 71.2637 108.758L1.7832 122.832L1 366.297L306.311 427.359L381.463 399.961L379.115 89.1699L339.973 81.3418L307.094 60.9883L267.98 68.9102C258.351 37.522 234.17 12.3461 202.875 12.3028C210.494 18.2187 214.854 23.4279 217.613 28.1504C240.089 34.3677 248.606 52.2846 255.348 71.4707L119.062 99.0762C124.339 57.0523 150.237 29.1372 176.848 22.9766L159.678 17.9492C135.48 27.8703 107.706 60.4672 108.701 101.174L79.8086 107.027C79.1888 103.052 78.8384 99.0194 78.7676 94.9629C78.0025 51.124 108.944 13.6639 147.877 11.293C149.246 11.2097 150.615 11.1712 151.982 11.1778C186.689 11.3429 215.25 39.9989 219.293 78.711L230.115 76.4961C225.2 33.012 192.645 1.03052 153.268 1.00002ZM226.852 168.629V246.719H139.172V181.154L226.852 168.629ZM136.432 181.547V246.719H67.9336V191.332L136.432 181.547ZM67.9336 249.457H136.432V315.359L67.9336 305.236V249.457ZM139.172 249.457H226.852V328.721L139.172 315.764V249.457Z" fill="black" stroke="black"/>
</svg>
