<?xml version="1.0" encoding="UTF-8" standalone="no"?>
<!-- Generator: Adobe Illustrator 16.0.0, SVG Export Plug-In . SVG Version: 6.00 Build 0)  -->

<svg
   xmlns:dc="http://purl.org/dc/elements/1.1/"
   xmlns:cc="http://creativecommons.org/ns#"
   xmlns:rdf="http://www.w3.org/1999/02/22-rdf-syntax-ns#"
   xmlns:svg="http://www.w3.org/2000/svg"
   xmlns="http://www.w3.org/2000/svg"
   xmlns:sodipodi="http://sodipodi.sourceforge.net/DTD/sodipodi-0.dtd"
   xmlns:inkscape="http://www.inkscape.org/namespaces/inkscape"
   version="1.1"
   id="Layer_1"
   x="0px"
   y="0px"
   width="1000px"
   height="910.435px"
   viewBox="0 0 1000 910.435"
   enable-background="new 0 0 1000 910.435"
   xml:space="preserve"
   sodipodi:docname="Bandai_Namco_Games.svg"
   inkscape:version="0.92.3 (2405546, 2018-03-11)"><metadata
   id="metadata61"><rdf:RDF><cc:Work
       rdf:about=""><dc:format>image/svg+xml</dc:format><dc:type
         rdf:resource="http://purl.org/dc/dcmitype/StillImage" /></cc:Work></rdf:RDF></metadata><defs
   id="defs59" /><sodipodi:namedview
   pagecolor="#ffffff"
   bordercolor="#666666"
   borderopacity="1"
   objecttolerance="10"
   gridtolerance="10"
   guidetolerance="10"
   inkscape:pageopacity="0"
   inkscape:pageshadow="2"
   inkscape:window-width="1366"
   inkscape:window-height="705"
   id="namedview57"
   showgrid="false"
   inkscape:zoom="0.25"
   inkscape:cx="-465.24611"
   inkscape:cy="395.8413"
   inkscape:window-x="-8"
   inkscape:window-y="-8"
   inkscape:window-maximized="1"
   inkscape:current-layer="Layer_1" />
<g
   id="g54">
	<path
   d="m 1000,858.183 c 0,28.869 -23.357,52.252 -52.225,52.252 H 52.251 C 23.41,910.435 0,887.052 0,858.183 V 52.252 C 0,23.356 23.41,0 52.251,0 H 947.775 C 976.643,0 1000,23.356 1000,52.252 v 805.931"
   id="path2"
   inkscape:connector-curvature="0"
   style="fill:#ffffff" />
	<path
   d="m 938.569,419.016 c 15.264,-48.041 -5.24,-94.752 -43.396,-136.005 -3.451,-3.829 -7.361,-8.012 -11.488,-12.601 -0.977,3.558 -2.037,7.114 -3.258,10.809 -5.189,16.946 -8.91,32.888 -8.639,46.738 0.869,41.822 20.994,77.833 42.502,114.47 2.391,4.154 4.727,8.31 7.008,12.438 l 2.281,-4.562 c 4.455,-9.207 12.111,-22.216 14.99,-31.287"
   id="path4"
   inkscape:connector-curvature="0"
   style="fill:#ffbf00;fill-opacity:1" />
	<path
   d="m 463.555,599.532 c -57.304,-9.288 -144.1,-16.943 -214.736,-32.752 -14.883,-3.364 -28.843,-7.168 -41.552,-11.541 13.145,12.465 28.516,26.614 37.261,33.079 46.71,34.462 102.954,64.146 177.339,74.031 89.186,11.949 199.094,11.76 279.586,-15.508 5.516,-1.845 10.893,-3.828 16.051,-5.919 -8.391,-0.519 -16.783,-1.17 -25.363,-1.956 -85.113,-8.175 -173.974,-30.607 -228.586,-39.434"
   id="path6"
   inkscape:connector-curvature="0"
   style="fill:#ffbf00;fill-opacity:1" />
	<path
   d="m 817.391,202.487 c 24.525,22.841 48.395,48.423 66.293,67.923 11.922,-44.241 6.055,-81.474 -18.523,-114.308 C 832.382,112.623 763.102,102.71 701.837,113.737 l -2.963,0.678 c 4.156,2.309 8.285,4.753 12.277,7.198 34.328,20.45 73.951,50.702 106.24,80.874"
   id="path8"
   inkscape:connector-curvature="0"
   style="fill:#e60000;fill-opacity:1" />
	<path
   d="m 735.565,632.448 c -5.674,3.177 -11.73,5.948 -18.061,8.475 11,0.678 21.809,1.139 32.482,1.168 94.672,0.543 175.463,-25.176 187.715,-117.675 1.871,-14.313 0,-27.892 -4.129,-41.146 -3.123,-9.668 -7.387,-19.035 -12.275,-28.406 -5.949,11.486 -12.982,23.029 -20.912,34.382 -40.547,57.63 -103.144,108.195 -164.82,143.202"
   id="path10"
   inkscape:connector-curvature="0"
   style="fill:#e60000;fill-opacity:1" />
	<path
   d="m 187.823,536.066 c -67.324,-68.926 -83.157,-151.433 -57.71,-226.224 3.232,-9.505 7.088,-18.521 11.732,-27.049 -9.586,5.73 -18.765,11.786 -27.538,18.276 -87.53,65.368 -91.005,141.003 11.379,213.786 20.015,14.258 52.74,30.333 79.49,39.621 l 2.091,0.762 c -8.01,-7.764 -15.208,-14.828 -19.444,-19.172"
   id="path12"
   inkscape:connector-curvature="0"
   style="fill:#e60000;fill-opacity:1" />
	<path
   d="m 451.279,178.697 c 108.333,-31.665 215.848,-57.303 220.709,-58.361 3.586,-0.896 19.473,-4.453 26.885,-5.921 C 667.371,96.791 630.437,83.701 584.975,77.508 475.368,62.382 393.487,101.381 306.121,147.711 c -72.022,38.102 -133.018,75.96 -164.277,135.083 23.817,-14.34 49.616,-26.126 75.661,-36.146 38.809,-14.884 180.789,-52.498 233.774,-67.951"
   id="path14"
   inkscape:connector-curvature="0"
   style="fill:#ffbf00;fill-opacity:1" />
	<path
   d="m 914.29,442.427 c -21.508,-36.637 -41.633,-72.647 -42.502,-114.47 -0.271,-13.851 3.449,-29.792 8.639,-46.738 1.221,-3.694 2.281,-7.251 3.258,-10.809 -17.898,-19.5 -41.768,-45.082 -66.293,-67.923 -32.289,-30.172 -71.912,-60.425 -106.24,-80.874 -3.992,-2.445 -8.121,-4.89 -12.277,-7.198 -7.412,1.468 -23.299,5.025 -26.885,5.921 -4.861,1.059 -112.377,26.696 -220.709,58.361 -52.985,15.453 -194.965,53.066 -233.774,67.95 -26.044,10.021 -51.843,21.807 -75.661,36.146 -4.644,8.527 -8.5,17.544 -11.732,27.049 -25.446,74.791 -9.614,157.298 57.71,226.224 4.236,4.344 11.434,11.407 19.444,19.173 12.709,4.373 26.668,8.177 41.552,11.541 70.636,15.809 157.433,23.464 214.736,32.752 54.611,8.827 143.473,31.259 228.586,39.435 8.58,0.786 16.973,1.438 25.363,1.956 6.33,-2.526 12.387,-5.298 18.061,-8.475 61.676,-35.007 124.273,-85.572 164.82,-143.202 7.93,-11.353 14.963,-22.896 20.912,-34.382 -2.282,-4.128 -4.618,-8.283 -7.008,-12.437"
   id="path16"
   inkscape:connector-curvature="0"
   style="fill:#ff5c00;fill-opacity:1" />
	<path
   d="m 247.787,339.743 h 9.396 c 10.482,0 22.541,1.141 22.541,13.796 0,11.813 -11.651,13.471 -22.839,13.471 h -9.098 v -27.267 m -30.635,49.21 h 48.45 c 20.585,0 44.755,-5.84 44.755,-33.594 0,-14.068 -7.875,-22.433 -23.219,-25.557 v -0.353 c 12.846,-4.373 20.206,-12.546 20.206,-27.131 0,-19.96 -15.915,-29.465 -37.343,-29.465 h -52.848 v 116.1 z m 30.635,-94.156 h 8.881 c 10.265,0 20.123,0.979 20.123,11.679 0,9.804 -10.482,12.302 -20.477,12.302 h -8.527 z"
   id="path18"
   inkscape:connector-curvature="0"
   style="fill:#ffffff" />
	<path
   d="M 384.525,342.269 H 355.71 l 14.829,-45.435 h 0.272 l 13.714,45.435 m -76.068,46.684 h 31.122 l 9.07,-24.769 h 43.182 l 8.473,24.769 h 33.621 L 389.631,272.854 h -37.585 z"
   id="path20"
   inkscape:connector-curvature="0"
   style="fill:#ffffff" />
	<polyline
   points="439.982,272.854 479.007,272.854 517.872,351.72 518.196,351.72 517.733,272.854 545.706,272.854    545.706,388.953 507.659,388.953 467.437,309.625 467.166,309.625 468.063,388.953 439.982,388.953 439.982,272.854  "
   id="polyline22"
   style="fill:#ffffff" />
	<path
   d="m 593.774,295.775 h 11.922 c 22.326,0 35.686,12.058 35.686,35.114 0,23.166 -12.844,35.17 -35.686,35.17 h -11.922 v -70.284 m -30.631,93.178 h 41.848 c 39.191,0 67.977,-15.128 67.977,-58.471 0,-45.055 -27.945,-57.628 -67.977,-57.628 h -41.848 z"
   id="path24"
   inkscape:connector-curvature="0"
   style="fill:#ffffff" />
	<path
   d="m 742.247,342.269 h -28.895 l 14.828,-45.435 h 0.352 l 13.715,45.435 m -76.176,46.684 h 31.148 l 9.016,-24.769 h 43.154 l 8.527,24.769 h 33.623 L 747.244,272.854 h -37.561 z"
   id="path26"
   inkscape:connector-curvature="0"
   style="fill:#ffffff" />
	<rect
   x="796.31897"
   y="272.854"
   width="30.577999"
   height="116.099"
   id="rect28"
   style="fill:#ffffff" />
	<polyline
   points="217.152,414.236 256.586,414.236 295.855,493.104 296.208,493.104 295.665,414.236    324.018,414.236 324.018,530.308 285.455,530.308 244.962,451.008 244.637,451.008 245.614,530.308 217.152,530.308    217.152,414.236  "
   id="polyline30"
   style="fill:#ffffff" />
	<path
   d="m 407.094,483.652 h -29.167 l 14.99,-45.463 h 0.271 l 13.906,45.463 m -76.939,46.656 h 31.504 l 9.098,-24.686 h 43.587 l 8.663,24.686 h 33.975 L 412.253,414.237 H 374.26 Z"
   id="path32"
   inkscape:connector-curvature="0"
   style="fill:#ffffff" />
	<polyline
   points="463.174,414.236 511.977,414.236 532.073,491.446 532.374,491.446 553.692,414.236    600.565,414.236 600.565,530.308 570.364,530.308 570.856,441.204 570.473,441.204 545.407,530.308 516.918,530.308    493.156,441.204 492.803,441.204 493.481,530.308 463.174,530.308 463.174,414.236  "
   id="polyline34"
   style="fill:#ffffff" />
	<path
   d="m 712.155,527.758 c -8.826,2.062 -18.656,4.726 -34.461,4.726 -30.963,0 -66.783,-15.78 -66.783,-59.611 0,-40.467 28.299,-60.645 66.621,-60.645 11.783,0 23.189,2.661 34.379,6.002 l -2.498,25.094 c -9.912,-5.405 -19.607,-8.121 -30.254,-8.121 -21.943,0 -36.281,15.969 -36.281,37.67 0,22.757 16.131,36.605 38.779,36.605 10.129,0 20.369,-2.768 29.006,-6.082 l 1.492,24.362"
   id="path36"
   inkscape:connector-curvature="0"
   style="fill:#ffffff" />
	<path
   d="m 748.793,472.327 c 0,-20.206 7.521,-37.125 26.369,-37.125 18.764,0 26.232,16.919 26.232,37.125 0,19.119 -7.469,37.15 -26.232,37.15 -18.847,0.001 -26.369,-18.031 -26.369,-37.15 m -31.912,0 c 0,36.933 20.23,60.156 58.281,60.156 37.857,0 58.225,-23.224 58.225,-60.156 0,-37.261 -20.016,-60.1 -58.225,-60.1 -38.322,0.001 -58.281,22.839 -58.281,60.1 z"
   id="path38"
   inkscape:connector-curvature="0"
   style="fill:#ffffff" />
	
	
	<path
   d="m 324.316,741.758 c -9.261,-6.109 -19.282,-9.099 -36.391,-9.099 -30.525,0 -50.758,22.133 -50.758,51.709 0,31.15 22.351,51.818 49.861,51.818 13.117,0 16.431,-1.357 21.237,-2.282 V 793.738 H 280.35 v -15.614 h 46.845 v 68.898 c -7.17,2.442 -19.716,5.865 -40.41,5.865 -41.877,0 -69.796,-26.912 -69.796,-69.089 0,-40.79 29.603,-67.92 70.04,-67.92 19.363,0 27.891,2.905 38.863,6.706 l -1.576,19.174"
   id="path44"
   inkscape:connector-curvature="0"
   style="fill:#e60000;fill-opacity:1" />
	<path
   d="m 410.923,813.047 c 0,14.394 -9.233,25.366 -26.914,25.366 -8.255,0 -18.087,-5.487 -18.087,-15.698 0,-17.108 23.927,-18.492 33.623,-18.492 3.746,0 7.549,0.35 11.378,0.35 v 8.474 M 358.889,775.87 c 7.251,-6.058 18.059,-9.886 28.053,-9.886 17.87,0 23.98,8.499 23.98,25.255 -7.062,-0.325 -11.977,-0.325 -18.983,-0.325 -18.413,0 -44.972,7.522 -44.972,31.801 0,21.075 14.61,30.173 35.467,30.173 16.295,0 25.8,-8.908 29.982,-14.827 h 0.326 v 12.573 h 16.729 c -0.353,-2.852 -0.76,-7.986 -0.76,-18.983 v -40.058 c 0,-26.343 -11.189,-39.977 -38.862,-39.977 -12.357,0 -22.976,3.775 -31.912,9.098 z"
   id="path46"
   inkscape:connector-curvature="0"
   style="fill:#e60000;fill-opacity:1" />
	<path
   d="m 457.715,753.899 h 16.729 v 13.984 h 0.38 c 6.871,-11.241 16.458,-16.268 30.688,-16.268 11.244,0 22.434,5.704 27.539,18.712 6.627,-13.849 21.238,-18.712 29.982,-18.712 24.631,0 33.566,15.888 33.566,36.963 v 62.055 h -17.816 v -57.628 c 0,-12.007 -2.85,-27.021 -17.244,-27.021 -18.223,0 -25.42,17.814 -25.42,35.821 v 48.828 h -17.898 v -57.628 c 0,-12.007 -2.768,-27.021 -17.217,-27.021 -18.221,0 -25.445,17.814 -25.445,35.821 v 48.828 h -17.844 v -96.734"
   id="path48"
   inkscape:connector-curvature="0"
   style="fill:#e60000;fill-opacity:1" />
	<path
   d="m 638.151,793.006 c 1.305,-12.628 8.525,-27.021 26.018,-27.021 15.369,0 24.061,12.14 24.061,27.021 h -50.079 m 61.648,35.766 c -4.318,3.61 -17.98,9.641 -29.766,9.641 -16.893,0 -31.883,-13.034 -31.883,-32.184 l 68.818,-0.054 0.162,-5.621 c -1.303,-28.325 -12.301,-48.938 -42.584,-48.938 -27.32,0 -45.326,20.261 -45.326,48.938 0,31.448 15.727,52.333 50.08,52.333 15.941,0 23.709,-3.803 30.498,-6.274 v -17.841 z"
   id="path50"
   inkscape:connector-curvature="0"
   style="fill:#e60000;fill-opacity:1" />
	<path
   d="m 730.624,831.65 c 7.061,4.536 17.027,6.763 22.105,6.763 8.229,0 18.277,-3.421 18.277,-13.797 0,-17.651 -41.986,-16.078 -41.986,-43.262 0,-20.017 15.018,-29.738 34.221,-29.738 8.309,0 15.125,1.684 22.16,3.775 l -1.576,15.535 c -3.967,-2.471 -14.502,-4.942 -18.713,-4.942 -9.152,0 -17.055,3.828 -17.055,11.784 0,19.691 41.852,14.014 41.852,44.946 0,20.695 -16.484,30.173 -33.756,30.173 -9.072,0 -18.332,-0.977 -26.508,-5.298 l 0.979,-15.939"
   id="path52"
   inkscape:connector-curvature="0"
   style="fill:#e60000;fill-opacity:1" />
</g>
</svg>