<svg width="21" height="16" viewBox="0 0 21 16" fill="none" xmlns="http://www.w3.org/2000/svg">
<path d="M20.8142 12.2493C20.4022 12.7604 19.3997 13.124 19.3997 13.124L11.9224 15.7732V13.8187L17.4237 11.8821C18.0471 11.6625 18.1456 11.3494 17.6352 11.1838C17.1284 11.0182 16.2097 11.065 15.5863 11.2882L11.9224 12.566V10.5359C12.7682 10.2551 13.6395 10.0463 14.6822 9.93116C16.1733 9.76918 17.9961 9.95276 19.4289 10.4891C21.0402 10.993 21.2225 11.7381 20.8142 12.2493ZM12.6333 8.91969V3.91631C12.6333 3.32958 12.5239 2.78965 11.9662 2.63487C11.5396 2.49809 11.2735 2.89044 11.2735 3.47717V16L7.85384 14.9273V0C9.30847 0.266367 11.4266 0.896288 12.564 1.27424C15.4624 2.25692 16.443 3.48076 16.443 6.23442C16.443 8.91609 14.766 9.93476 12.6333 8.91969ZM1.576 13.6135C-0.0791397 13.1528 -0.356211 12.1917 0.398443 11.6409C1.09477 11.1298 2.28326 10.7447 2.28326 10.7447L7.18668 9.02407V10.9858L3.65767 12.2313C3.03426 12.4508 2.93948 12.764 3.44622 12.9296C3.95297 13.0952 4.87168 13.0484 5.49509 12.8252L7.18668 12.2169V13.9735C5.30552 14.3082 3.48997 14.2362 1.576 13.6135Z" fill="#34344A"/>
</svg>
