<svg width="23" height="23" viewBox="0 0 23 23" fill="none" xmlns="http://www.w3.org/2000/svg">
<path fill-rule="evenodd" clip-rule="evenodd" d="M8.8614 0.0126895C6.78672 0.114114 4.81075 0.89933 3.25168 2.24189C0.243494 4.83229 -0.801207 9.00707 0.64 12.6786C1.67927 15.3261 3.88587 17.3655 6.60655 18.193C8.44104 18.7509 10.4513 18.7151 12.268 18.0922C12.9336 17.864 13.399 17.6434 14.219 17.1674L14.312 17.1134L17.2108 20.0136C19.2554 22.0593 20.1411 22.9269 20.2166 22.9581C20.3603 23.0177 20.4849 23.0139 20.6255 22.9457C20.7017 22.9088 21.1246 22.5048 21.8389 21.7866C22.8654 20.7546 22.9374 20.6754 22.9688 20.5461C23.0418 20.245 23.2436 20.4713 20.0195 17.2411L17.1003 14.3163L17.274 14.0234C17.8967 12.9734 18.2982 11.8443 18.489 10.6061C18.5638 10.1204 18.5926 8.99267 18.5436 8.46819C18.3447 6.33995 17.4456 4.37551 15.9747 2.85562C14.3241 1.14995 12.1885 0.166669 9.8217 0.0225669C9.37039 -0.00490571 9.24729 -0.00617275 8.8614 0.0126895ZM10.2854 3.03171C11.2252 3.20026 12.0062 3.50506 12.7531 3.99467C14.2885 5.00122 15.281 6.56108 15.5668 8.41658C15.6266 8.80457 15.6344 9.67891 15.5817 10.0724C15.4503 11.0535 15.0862 12.0276 14.5599 12.8066C14.2712 13.234 14.0428 13.506 13.6755 13.8601C12.6504 14.8481 11.3902 15.4365 9.94215 15.6031C9.51673 15.652 8.66621 15.624 8.23164 15.5467C6.87559 15.3056 5.70327 14.6869 4.75719 13.7128C4.41988 13.3656 4.25205 13.1582 3.99688 12.7735C2.36733 10.3167 2.67492 7.02181 4.73118 4.90737C5.10968 4.51812 5.38596 4.28592 5.8001 4.00895C6.58112 3.4866 7.5218 3.13772 8.51618 3.00165C8.90786 2.94806 9.91438 2.96516 10.2854 3.03171Z" fill="#191924"/>
</svg>
