<svg width="26" height="23" viewBox="0 0 26 23" fill="none" xmlns="http://www.w3.org/2000/svg">
<path fill-rule="evenodd" clip-rule="evenodd" d="M12.0484 0.0163377C9.50829 0.23472 7.17032 1.15101 5.14404 2.72221C4.43451 3.2724 3.14776 4.60584 2.61682 5.34111C1.24192 7.24523 0.430836 9.29108 0.0860741 11.7246C-0.0286914 12.5347 -0.0286914 14.4337 0.0860741 15.2438C0.48987 18.0938 1.64711 20.6631 3.38897 22.5769L3.77406 23L3.94758 22.4437C4.59519 20.3677 6.02853 18.4478 7.8383 17.2322C9.02336 16.4362 10.4652 15.9006 11.8821 15.7299C12.2245 15.6886 12.5124 15.6468 12.5219 15.6369C12.5315 15.627 12.4032 15.6045 12.2368 15.5868C11.828 15.5434 11.2007 15.3496 10.7316 15.1218C9.13236 14.3452 8.00899 12.7967 7.72405 10.9761C7.35984 8.6489 8.5021 6.29216 10.522 5.20318C13.4479 3.62572 17.024 5.12258 18.0717 8.36337C18.9281 11.0122 17.7178 13.9343 15.2725 15.1218C14.8034 15.3496 14.1761 15.5434 13.7673 15.5868C13.601 15.6045 13.4727 15.627 13.4822 15.6369C13.4917 15.6468 13.7796 15.6886 14.122 15.7299C16.9283 16.068 19.4604 17.7061 21.0212 20.1931C21.3869 20.7758 21.8508 21.7843 22.0565 22.4437L22.23 23L22.6151 22.5769C24.1024 20.9429 25.2459 18.6546 25.7256 16.3526C25.9475 15.2874 26 14.739 26 13.4842C26 12.6074 25.9789 12.1541 25.918 11.7246C25.5716 9.27912 24.7803 7.28625 23.3818 5.33706C22.8587 4.60791 21.574 3.27578 20.8601 2.72221C19.0507 1.31916 17.1102 0.482075 14.8396 0.125143C14.25 0.0324391 12.6062 -0.0316293 12.0484 0.0163377Z" fill="#191924"/>
</svg>
