<svg width="14" height="14" viewBox="0 0 14 14" fill="none" xmlns="http://www.w3.org/2000/svg">
<path d="M10.2148 8.75555C11.4653 10.288 12.0412 11.5438 11.7504 12.1054C11.5274 12.5315 10.1499 13.364 9.13645 13.6829C8.30088 13.9454 7.2056 14.0583 6.30228 13.9708C5.22393 13.8664 4.13148 13.4798 3.19428 12.8702C2.40669 12.3566 2.22885 12.1449 2.22885 11.7244C2.22885 10.8806 3.15758 9.40181 4.74687 7.71419C5.65019 6.7575 6.90637 5.6343 7.04469 5.66534C7.31005 5.72461 9.42439 7.78474 10.2148 8.75555ZM5.0969 3.8338C4.25851 3.07465 3.45681 2.31268 2.65793 2.04458C2.22885 1.90065 2.1978 1.90912 1.84776 2.27317C1.02348 3.13109 0.33752 4.52239 0.145564 5.72743C-0.00687182 6.69259 -0.026632 6.96351 0.0270028 7.4348C0.185084 8.85997 0.515362 9.84488 1.17027 10.8467C1.43845 11.2588 1.51184 11.335 1.4328 11.1261C1.31424 10.8157 1.42433 10.0678 1.70097 9.31997C2.10465 8.21935 3.22251 6.13381 5.0969 3.8338ZM13.893 5.62583C13.4159 3.36815 11.9876 1.94863 11.7871 1.94863C11.5811 1.94863 11.104 2.13207 10.7709 2.3409C10.1132 2.75011 9.61352 3.22704 8.95579 3.83097C10.1527 5.33516 11.8408 7.76499 12.4251 9.54009C12.6171 10.1243 12.6989 10.7 12.634 11.0161C12.586 11.2559 12.586 11.2559 12.6735 11.1459C12.8457 10.9286 13.2353 10.2626 13.3905 9.91826C13.5994 9.46107 13.814 8.78377 13.9156 8.26168C14.037 7.62671 14.0257 6.26363 13.893 5.62583ZM3.76168 0.989112C5.1082 0.91856 6.85838 1.96274 6.98824 1.98814C7.008 1.99096 7.28182 1.86961 7.59798 1.71439C9.4018 0.836718 10.2515 0.98629 10.6298 1.00322C8.82593 -0.105865 6.31921 -0.40783 4.02703 0.673036C3.36648 0.98629 3.34954 1.00887 3.76168 0.989112Z" fill="#34344A"/>
</svg>
